<?xml version="1.0" encoding="UTF-8" standalone="no"?>
<!-- Generator: Adobe Illustrator 16.0.0, SVG Export Plug-In . SVG Version: 6.00 Build 0)  -->

<svg
   xmlns:dc="http://purl.org/dc/elements/1.1/"
   xmlns:cc="http://creativecommons.org/ns#"
   xmlns:rdf="http://www.w3.org/1999/02/22-rdf-syntax-ns#"
   xmlns:svg="http://www.w3.org/2000/svg"
   xmlns="http://www.w3.org/2000/svg"
   xmlns:sodipodi="http://sodipodi.sourceforge.net/DTD/sodipodi-0.dtd"
   xmlns:inkscape="http://www.inkscape.org/namespaces/inkscape"
   version="1.1"
   id="Layer_1"
   x="0px"
   y="0px"
   width="20"
   height="20"
   viewBox="0 0 19.999999 20.000001"
   enable-background="new 0 0 266.893 266.895"
   xml:space="preserve"
   inkscape:version="0.48.4 r9939"
   sodipodi:docname="facebook-20-x-20.svg"><sodipodi:namedview
     pagecolor="#ffffff"
     bordercolor="#666666"
     borderopacity="1"
     objecttolerance="10"
     gridtolerance="10"
     guidetolerance="10"
     inkscape:pageopacity="0"
     inkscape:pageshadow="2"
     inkscape:window-width="1366"
     inkscape:window-height="716"
     id="namedview3035"
     showgrid="false"
     inkscape:zoom="11.254575"
     inkscape:cx="18.291474"
     inkscape:cy="6.2659552"
     inkscape:window-x="0"
     inkscape:window-y="25"
     inkscape:window-maximized="1"
     inkscape:current-layer="Layer_1" /><metadata
     id="metadata3039"><rdf:RDF><cc:Work
         rdf:about=""><dc:format>image/svg+xml</dc:format><dc:type
           rdf:resource="http://purl.org/dc/dcmitype/StillImage" /><dc:title /></cc:Work></rdf:RDF></metadata><defs
     id="defs3037" /><path
     d="m 18.872103,19.976271 c 0.6095,0 1.10377,-0.49426 1.10377,-1.10391 V 1.0801112 c 0,-0.60973999 -0.49419,-1.10383999 -1.10377,-1.10383999 H 1.0797146 c -0.60973903,0 -1.10384703,0.4941 -1.10384703,1.10383999 V 18.872361 c 0,0.60957 0.49403,1.10391 1.10384703,1.10391 H 18.872103 z"
     id="Blue_1_"
     style="fill:#ffffff"
     inkscape:connector-curvature="0" /><path
     d="m 13.775583,19.976271 v -7.7451 h 2.59967 l 0.38926,-3.0184103 h -2.98893 v -1.92706 c 0,-0.8739 0.24267,-1.46942 1.49582,-1.46942 l 1.59835,-6.7e-4 V 3.115921 c -0.27643,-0.0368 -1.22522,-0.11896 -2.32907,-0.11896 -2.30447,0 -3.882166,1.40664 -3.882166,3.9898397 v 2.226 H 8.0521687 v 3.0184003 h 2.6063483 v 7.74507 h 3.117066 z"
     id="f"
     style="fill:#000000;fill-opacity:1"
     inkscape:connector-curvature="0" /></svg>