<?xml version="1.0" encoding="UTF-8" standalone="no"?>
<!-- Created with Inkscape (http://www.inkscape.org/) -->

<svg
   xmlns:dc="http://purl.org/dc/elements/1.1/"
   xmlns:cc="http://creativecommons.org/ns#"
   xmlns:rdf="http://www.w3.org/1999/02/22-rdf-syntax-ns#"
   xmlns:svg="http://www.w3.org/2000/svg"
   xmlns="http://www.w3.org/2000/svg"
   xmlns:sodipodi="http://sodipodi.sourceforge.net/DTD/sodipodi-0.dtd"
   xmlns:inkscape="http://www.inkscape.org/namespaces/inkscape"
   width="20"
   height="20"
   id="svg2"
   version="1.1"
   inkscape:version="0.48.4 r9939"
   sodipodi:docname="twitter-20-x-20.svg">
  <defs
     id="defs4" />
  <sodipodi:namedview
     id="base"
     pagecolor="#ffffff"
     bordercolor="#666666"
     borderopacity="1.0"
     inkscape:pageopacity="0.0"
     inkscape:pageshadow="2"
     inkscape:zoom="10.52191"
     inkscape:cx="19.488214"
     inkscape:cy="6.4401355"
     inkscape:document-units="px"
     inkscape:current-layer="layer1"
     showgrid="false"
     inkscape:window-width="1366"
     inkscape:window-height="716"
     inkscape:window-x="0"
     inkscape:window-y="25"
     inkscape:window-maximized="1"
     fit-margin-top="0"
     fit-margin-left="0"
     fit-margin-right="0"
     fit-margin-bottom="0" />
  <metadata
     id="metadata7">
    <rdf:RDF>
      <cc:Work
         rdf:about="">
        <dc:format>image/svg+xml</dc:format>
        <dc:type
           rdf:resource="http://purl.org/dc/dcmitype/StillImage" />
        <dc:title />
      </cc:Work>
    </rdf:RDF>
  </metadata>
  <g
     inkscape:label="Layer 1"
     inkscape:groupmode="layer"
     id="layer1"
     transform="translate(-282.32053,-515.68573)">
    <rect
       style="fill:#303030;fill-opacity:1"
       id="rect2983"
       width="20"
       height="20"
       x="282.32056"
       y="515.72729" />
  </g>
  <g
     inkscape:groupmode="layer"
     id="layer2"
     inkscape:label="twitter">
    <path
       style="fill:#ffffff"
       inkscape:connector-curvature="0"
       id="path5"
       d="m 20.095028,3.8481424 c -0.7358,0.32647 -1.5267,0.54702 -2.3566,0.64624 0.8471,-0.50791 1.4978,-1.31218 1.8041,-2.27058 -0.7929,0.4704 -1.671,0.81187 -2.60571,0.99591 -0.7484,-0.79767 -1.8148,-1.29598 -2.995,-1.29598 -2.266,0 -4.1033101,1.8375 -4.1033101,4.10398 0,0.32167 0.0363,0.63494 0.1063,0.93531 -3.4102,-0.17114 -6.43361,-1.80509 -8.45741,-4.28813 -0.3532,0.60613 -0.55560004,1.31108 -0.55560004,2.06325 0,1.4239 0.72440004,2.68007 1.82540004,3.41603 -0.6726,-0.0213 -1.3053,-0.20594 -1.85850004,-0.51331 -4.7e-4,0.0171 -4.7e-4,0.0343 -4.7e-4,0.0516 0,1.98843 1.41441004,3.6470896 3.29151004,4.0243696 -0.3443,0.0938 -0.7068,0.14393 -1.08101,0.14393 -0.26439,0 -0.52139,-0.0258 -0.772,-0.0736 0.5222,1.63045 2.03751,2.81701 3.83311,2.85002 -1.4043,1.10083 -3.1735,1.75698 -5.09601,1.75698 -0.33120004,0 -0.65780004,-0.0195 -0.97880004,-0.0574 1.81590004,1.16455 3.97271004,1.844 6.28991004,1.844 7.5473101,0 11.6746201,-6.25365 11.6746201,-11.6772096 0,-0.17794 -0.004,-0.35488 -0.0119,-0.53102 0.8016,-0.57852 1.4972,-1.30128 2.0473,-2.12436 z" />
  </g>
</svg>
